<svg width="239.000000" height="89.050781" viewBox="0 0 239 89.0508" fill="none" xmlns="http://www.w3.org/2000/svg" xmlns:xlink="http://www.w3.org/1999/xlink">
	<desc>
			Created with Pixso.
	</desc>
	<defs/>
	<path id="&amp;" d="M114.35 88C115.68 88.7 117.04 89.05 118.44 89.05C119.32 89.05 120.08 88.95 120.72 88.77C123.83 88.01 126.18 86.4 127.76 83.95C129.35 81.52 130.44 78.63 131.04 75.3C131.65 71.97 131.95 68.65 131.95 65.35C131.95 64.26 131.92 63.18 131.86 62.11Q131.77 60.49 131.67 58.95Q133.97 57.44 136.02 55.63Q138.46 53.47 140.53 50.9Q141.11 50.2 141.64 49.46Q144.67 45.3 146.53 40.28C146.98 39 147.42 37.5 147.86 35.76C148.31 34.01 148.53 32.31 148.53 30.67C148.53 29.28 148.34 28 147.95 26.86C147.39 25.2 146.53 24.07 145.35 23.46C144.17 22.86 142.94 22.55 141.67 22.55C140.79 22.55 139.97 22.65 139.21 22.86C136.85 23.43 134.67 24.53 132.67 26.16Q129.67 28.58 127.49 31.32C127.1 28.72 126.7 26.07 126.28 23.37Q125.67 19.32 125.67 15.41C126.43 14.53 127.28 13.5 128.23 12.32C129.19 11.14 130.04 9.86 130.77 8.46C131.49 7.06 131.86 5.67 131.86 4.27C131.86 3.45 131.73 2.75 131.49 2.18C131.22 1.55 130.87 1.03 130.42 0.62C129.98 0.2 129.45 -0.01 128.81 -0.01C127.87 -0.01 127.09 0.42 126.49 1.27C125.88 2.13 125.38 2.97 125 3.81C124.5 4.94 124.17 6.29 124 7.86C123.84 9.41 123.76 10.94 123.76 12.46C123.76 13.1 123.78 13.73 123.81 14.37C123.84 15 123.86 15.61 123.86 16.18Q119.58 20.86 115.37 25Q111.18 29.14 107.37 33.67Q103.58 38.18 100.44 44.18Q97.99 42.5 96.52 40.19Q95.77 38.99 95.27 37.62C95.03 36.85 94.84 36.1 94.72 35.37C94.59 34.64 94.53 33.93 94.53 33.23C94.53 30.62 95.21 28.24 96.58 26.09Q97.64 24.41 98.99 22.99Q100.23 21.69 101.72 20.62C103.78 19.12 105.89 18.11 108.04 17.6C108.94 17.41 109.8 17.32 110.62 17.32L113.18 17.32C113.51 17.32 113.61 17.2 113.49 16.95Q113.48 16.95 113.48 16.94Q113.38 16.55 111.86 16.55Q110.62 16.55 109.23 16.76C108.31 16.89 107.73 16.98 107.48 17.04Q104.04 17.81 100.51 20.3C98.17 21.94 96.2 23.96 94.6 26.34Q93.42 28.12 92.83 30.07Q92.23 32.03 92.23 34.18C92.23 34.88 92.29 35.62 92.41 36.39C92.55 37.15 92.75 37.91 93 38.67C93.57 40.31 94.41 41.77 95.51 43.04Q96.21 43.84 97 44.54Q98.1 45.51 99.37 46.28C98.75 47.67 98.17 49.25 97.62 51C97.08 52.75 96.81 54.55 96.81 56.39Q96.81 57.32 96.9 58.35C96.96 59.01 97.12 59.66 97.37 60.28Q98.19 62.66 99.84 64.11Q100.89 65.04 102.28 65.58C104.66 66.49 107.1 66.95 109.58 66.95C110.97 66.95 112.29 66.87 113.53 66.72Q115.39 66.49 116.81 66.09C118.84 65.59 120.8 64.97 122.67 64.21C124.55 63.43 126.37 62.54 128.14 61.53C128.21 63.5 128.18 65.87 128.04 68.63C127.92 71.39 127.59 74.13 127.04 76.86C126.52 79.59 125.63 81.97 124.39 84C123.15 86.03 121.45 87.3 119.3 87.81C119.04 87.88 118.76 87.92 118.46 87.95C118.18 87.98 117.92 88 117.67 88C116.59 88 115.55 87.71 114.55 87.14C113.58 86.58 112.77 85.7 112.14 84.49C112.01 84.16 111.86 84.05 111.67 84.14C111.49 84.25 111.42 84.39 111.49 84.58C112.06 86.16 113.01 87.3 114.35 88ZM127.44 11.46C126.71 12.7 126.12 13.58 125.67 14.09Q125.76 12.09 126.09 9.27Q126.44 6.46 127.3 4.65C127.42 4.27 127.69 3.82 128.09 3.27C128.51 2.73 128.91 2.46 129.3 2.46C129.55 2.46 129.73 2.56 129.86 2.76C129.98 2.95 130.08 3.13 130.14 3.32C130.21 3.44 130.25 3.7 130.25 4.09C130.25 4.97 129.97 6.11 129.39 7.51Q128.53 9.6 127.44 11.46ZM112.95 44.81C111.01 45.79 109 46.28 106.9 46.28C105.63 46.28 104.42 46.06 103.28 45.62C103.72 44.6 104.17 43.62 104.6 42.67C105.05 41.71 105.53 40.79 106.04 39.9Q107.86 36.46 110 33.28Q112.14 30.09 114.62 27.23C116.08 25.52 117.6 23.88 119.18 22.3Q121.58 19.9 123.86 17.41C124.04 20.14 124.28 22.86 124.56 25.58C124.85 28.28 125.16 30.99 125.49 33.72C124.85 34.48 123.91 35.54 122.67 36.9C121.43 38.27 119.98 39.68 118.32 41.14Q116.75 42.53 114.99 43.65Q114 44.27 112.95 44.81ZM139.23 50.81C136.98 53.39 134.37 55.63 131.39 57.53C131.13 53.39 130.6 49.23 129.81 45.04C129.02 40.86 128.31 36.66 127.67 32.46C129.77 30.37 131.86 28.8 133.95 27.76C136.04 26.71 137.95 26.18 139.67 26.18C141.58 26.18 143.14 26.82 144.35 28.09C145.56 29.36 146.16 31.27 146.16 33.81C146.16 34.88 146.03 36.07 145.77 37.37C145.52 38.67 145.11 40.12 144.53 41.72C143.26 45.21 141.49 48.24 139.23 50.81ZM116.28 63.95C115.24 64.11 114.18 64.18 113.09 64.18Q112.81 64.18 112.54 64.17Q109.58 64.07 106.67 62.86C104.55 61.97 103.03 60.32 102.14 57.9Q101.58 55.9 101.58 53.9C101.58 52.82 101.69 51.74 101.9 50.67C102.12 49.59 102.36 48.6 102.62 47.72C103.9 48.09 105.17 48.28 106.44 48.28C108.59 48.28 110.67 47.8 112.67 46.86C114.67 45.9 116.52 44.7 118.23 43.28Q120.81 41.14 122.72 38.81C123.99 37.24 124.97 35.86 125.67 34.67C126.18 38.92 126.67 43.16 127.14 47.39Q127.86 53.72 127.95 60C125.22 61.52 122.27 62.66 119.09 63.44C118.27 63.63 117.33 63.8 116.28 63.95Z" fill="#FFA55C" fill-opacity="1.000000" fill-rule="evenodd"/>
	<path id="Wake Bake" d="M6.63 68.19Q6.86 68.24 7.1 68.24Q8.4 68.24 9.96 66.91Q11.51 65.6 13.12 63.29Q14.73 60.98 16.21 57.98Q17.7 54.98 18.92 51.59Q20.15 48.18 20.92 44.72Q21.21 46.3 21.73 48.39Q22.27 50.47 23.03 52.97Q23.9 55.57 25.1 57.68Q26.3 59.79 27.71 61.07Q29.1 62.31 30.51 62.33Q30.54 62.33 30.57 62.33Q30.67 62.33 30.77 62.32Q32.44 62.2 33.96 59.99Q35.56 57.63 36.62 52.11Q37.1 49.57 37.26 47.07Q37.44 44.58 37.44 42.08L37.44 40.32Q37.44 39.43 37.39 38.58Q38.35 40.21 39.09 40.8Q39.84 41.4 40.94 41.93Q41.13 41.98 41.56 41.79Q41.93 41.63 41.98 41.4Q42 41.35 42 41.31Q42 41.2 41.94 41.15Q41.92 41.13 41.9 41.12Q41.22 40.87 40.53 39.75Q39.84 38.62 39.21 37.25Q38.58 35.88 38.2 34.92Q37.87 34.07 37.41 32.89Q36.96 31.71 36.43 31.04Q36.04 30.46 35.66 30.46Q35.59 30.46 35.53 30.48Q35.29 30.55 35.15 30.94Q34.99 31.42 34.99 32.1Q34.99 32.62 35.08 33.25Q35.17 33.87 35.37 34.44Q35.9 35.84 36.11 38.05Q36.33 40.25 36.33 42.8Q36.33 45.87 36 49.07Q35.66 52.25 34.99 54.97Q34.32 57.68 33.33 59.33Q32.49 60.74 31.42 60.95Q31.24 60.98 31.05 60.98Q29.81 60.98 28.32 59.14Q26.83 57.29 25.05 53.03Q24.18 50.86 23.54 48.32Q22.89 45.77 22.37 43.11Q21.84 40.44 21.31 38.05Q21.08 36.91 20.49 36.67Q20.33 36.61 20.15 36.61Q20.13 36.61 20.11 36.61Q19.56 36.64 19.05 37.43Q18.52 38.24 18.52 39.68Q18.52 41.03 18.62 41.89Q18.71 42.75 19.19 43.57Q18.77 45.96 18.02 48.84Q17.28 51.73 16.37 54.52Q15.45 57.29 14.35 59.36Q13.53 60.94 12.52 62.53Q11.51 64.11 10.48 65.17Q9.45 66.22 8.49 66.22Q8.39 66.22 8.3 66.21Q7.55 66.09 6.96 64.99Q6.29 63.77 5.9 60.75Q5.85 60.27 5.83 59.72Q5.81 59.17 5.81 58.55Q5.81 56.38 6.07 53.55Q6.33 50.72 6.64 47.58Q6.96 44.43 7.21 41.31Q7.48 38.19 7.48 35.4Q7.48 31.71 6.8 29.12Q6.27 27.07 4.99 26.34Q4.66 26.15 4.27 26.05Q4.12 25.99 3.98 25.97Q3.84 25.95 3.64 25.95Q3.31 25.95 3.01 26.03Q2.42 26.18 1.91 26.65Q1.79 26.75 1.68 26.86Q1.08 27.49 0.71 28.35Q0.29 29.36 0.29 30.27Q0.29 30.46 0.31 30.63Q0.33 30.8 0.38 30.98Q0.4 31.11 0.44 31.12Q0.52 31.14 0.69 30.82Q0.96 30.32 1.41 29.48Q1.87 28.64 2.47 27.95Q3.05 27.27 3.65 27.25Q3.67 27.25 3.69 27.25Q3.85 27.25 3.99 27.29Q4.76 27.55 5.08 29.12Q5.47 30.98 5.47 34.02Q5.47 36.46 5.27 39.43Q5.08 42.41 4.81 45.52Q4.55 48.61 4.26 51.54Q3.98 54.46 3.78 56.88Q3.59 59.31 3.59 60.89L3.59 61.64Q3.59 61.99 3.64 62.24Q4.03 65.4 4.94 66.82Q5.68 67.97 6.63 68.19ZM100.05 80.74Q100.3 80.77 100.56 80.77Q101.61 80.77 102.67 80.33Q102.9 80.24 102.97 80.07Q103.01 79.99 103.01 79.9Q103.01 79.87 103 79.83Q102.97 79.54 102.67 79.28Q102.38 79.03 102.07 78.99Q102.01 78.98 101.95 78.98Q101.66 78.98 101.47 79.13Q101.42 79.17 101.37 79.23Q101.13 79.46 100.46 79.46Q99.55 79.46 98.16 78.82Q96.76 78.18 95.37 76.62Q93.98 75.06 93.09 72.27Q92.2 69.48 92.3 65.21Q97.15 64.55 101.44 62.62Q105.74 60.7 109.22 58.07Q112.7 55.42 115.01 52.59Q116.59 50.62 117.47 48.77Q118.36 46.92 118.36 45.34Q118.36 44.44 118.03 43.67Q117.58 42.61 116.51 41.81Q114.67 40.44 110.54 40.44Q109.43 40.44 108.13 40.57Q106.84 40.69 105.35 40.92Q109.77 37.85 111.64 35.31Q113.52 32.77 113.52 30.84Q113.52 29.91 113.15 29.17Q112.69 28.26 111.69 27.63Q109.86 26.47 106.95 26.47Q104.82 26.47 102.3 27.15Q99.78 27.82 97.19 29.21Q95.18 30.27 93.3 31.73Q91.43 33.2 89.92 34.85Q88.41 36.5 87.52 38.14Q86.64 39.77 86.64 41.21Q86.64 42.18 86.99 42.66Q87.35 43.14 87.69 43.14Q87.88 43.14 88.01 43.06Q88.41 42.82 88.41 41.93Q88.41 41.84 88.38 41.72Q88.36 41.6 88.36 41.5Q88.22 40.49 88.79 39.04Q89.37 37.57 90.54 35.92Q91.72 34.25 93.42 32.7Q95.13 31.14 97.24 29.98Q99.78 28.59 102.19 27.97Q104.59 27.34 106.51 27.34Q108.96 27.34 110.47 28.23Q111.34 28.74 111.71 29.5Q111.98 30.06 111.98 30.75Q111.98 32.62 109.49 35.37Q106.99 38.1 101.09 41.45Q100.7 41.63 100.59 41.92Q100.56 42.02 100.56 42.13Q100.56 42.27 100.63 42.37Q100.76 42.56 101.18 42.56Q101.32 42.56 101.71 42.46Q103.34 41.84 105.35 41.48Q107.37 41.12 109.34 41.12Q111.21 41.12 112.79 41.53Q114.37 41.93 115.34 42.82Q115.59 43.05 115.77 43.33Q116.3 44.11 116.3 45.25Q116.3 46.3 115.7 47.72Q115.1 49.14 113.75 50.95Q111.64 53.84 108.52 56.53Q105.4 59.21 101.34 61.25Q97.29 63.29 92.34 64.35Q92.45 62.33 92.82 59.96Q93.21 57.59 93.93 54.8Q95.8 54.08 97.93 53.58Q100.08 53.07 102.42 52.92Q103.49 52.87 103.93 52.71Q104.38 52.55 104.39 52.36Q104.39 52.35 104.39 52.35Q104.39 52.33 104.39 52.32Q104.34 52.16 103.72 52.16Q101.18 52.25 98.73 52.78Q96.28 53.31 94.12 54.13Q95.27 49.85 97.31 44.7Q99.35 39.54 102.42 33.34Q102.57 32.95 102.57 32.72Q102.57 32.42 102.44 32.2Q102.36 32.06 102.23 31.96Q102.02 31.77 101.78 31.7Q101.63 31.66 101.47 31.66Q101.15 31.66 100.91 31.8Q100.64 31.96 100.46 32.29Q97.01 38.67 94.96 44.37Q92.92 50.05 92.02 54.94Q89.37 56.1 87.4 57.52Q85.43 58.92 84.33 60.32Q83.23 61.71 83.23 62.86Q83.23 63.18 83.32 63.46Q83.58 64.21 84.49 64.72Q85.77 65.45 88.56 65.45Q89.8 65.45 91.29 65.31Q91.53 70.21 92.89 73.66Q94.27 77.12 96.3 78.94Q98.11 80.55 100.05 80.74ZM49.69 69.57Q49.95 69.73 50.3 69.73Q50.52 69.73 50.72 69.66Q51.04 69.56 51.31 69.29Q52.22 68.19 52.98 65.29Q53.76 62.38 54.28 58.73Q55 60.18 55.89 61.48Q56.78 62.77 57.83 63.57Q58.81 64.33 59.82 64.39Q59.91 64.39 59.99 64.39Q60.86 64.39 61.77 63.77Q62.68 63.15 63.6 61.8Q63.83 61.46 64.29 60.63Q64.75 59.79 65.23 58.83Q65.25 58.79 65.26 58.76Q65.58 60.34 66.21 61.35Q67.26 63.03 68.62 63.32Q68.91 63.39 69.21 63.39Q70.89 63.39 72.67 61.71Q74.45 60.04 75.69 56.95Q75.88 56.58 75.88 56.24Q75.88 55.99 75.76 55.9Q75.69 55.85 75.6 55.85Q75.57 55.85 75.54 55.85Q75.14 55.9 74.82 56.62Q73.43 59.55 71.99 60.93Q70.56 62.29 69.4 62.29Q69.04 62.29 68.71 62.17Q67.84 61.88 67.24 60.77Q66.42 59.26 66.42 56.58Q66.42 55.9 66.49 55.21Q66.57 54.5 66.67 53.74Q67.05 51 67.89 49.87Q68.73 48.75 69.46 48.75Q69.55 48.75 69.64 48.77Q69.9 48.84 70.11 49.11Q70.41 49.46 70.41 50.1Q70.41 51.15 69.54 52.52Q68.68 53.88 67.72 54.56Q66.96 55.04 66.96 55.42Q66.96 55.48 66.99 55.51Q67.04 55.57 67.15 55.57Q67.43 55.57 67.63 55.46Q68.54 55.14 69.47 54.11Q69.55 54.02 69.63 53.93Q70.46 52.97 71.07 51.81Q71.75 50.53 71.75 49.37Q71.75 48.34 71.25 47.72Q71.17 47.62 71.07 47.53Q70.76 47.22 70.37 47.05Q69.95 46.87 69.46 46.87Q68.5 46.87 67.43 47.7Q66.37 48.5 65.65 50.26Q64.93 52.01 64.93 54.89Q64.93 56.13 65.03 57.19Q64.92 57.35 64.79 57.59Q64.41 58.21 63.83 59.46Q63.26 60.7 62.44 61.71Q61.24 63.11 60.09 63.11Q60 63.11 59.9 63.1Q58.89 63.02 57.95 62.1Q56.92 61.09 56.1 59.55Q55.29 58.01 54.67 56.43L55.63 55.42L57.45 53.4Q57.74 53.12 58.68 52.34Q59.61 51.54 60.74 50.58Q61.86 49.62 62.67 48.75Q63.49 47.88 63.49 47.45Q63.49 47.34 63.44 47.26Q63.32 47.07 62.92 47.07Q62.2 47.03 61.34 47.77Q60.47 48.5 59.67 49.39Q58.89 50.29 58.41 50.77Q57.93 51.25 57.93 51.59Q57.93 51.77 58 51.87Q58.06 51.94 58.08 52.03Q58.08 52.05 58.08 52.07L58.08 52.11Q57.4 52.92 56.49 53.67Q55.58 54.41 54.72 55.18Q54.95 53.03 55.04 50.85Q55.15 48.66 55.15 46.69Q55.15 43.8 54.88 41.55Q54.62 39.29 54.09 38.24Q53.94 37.89 53.7 37.82Q53.64 37.8 53.57 37.8Q53.5 37.8 53.45 37.83Q53.27 37.93 53.27 38.33Q53.27 38.72 53.57 39.43Q53.85 40.16 53.99 41.37Q54.14 42.56 54.14 44.1Q54.14 45.96 53.94 48.2Q53.76 50.43 53.46 52.69Q53.46 52.68 53.46 52.67Q53.45 52.59 53.3 52.52Q53.13 52.44 53.04 52.44Q52.84 52.39 52.48 52.92Q52.13 53.45 52.13 54.22Q52.13 54.47 52.18 54.71Q52.34 55.43 52.98 56.05Q52.86 56.64 52.6 58.01Q52.55 58.01 52.51 58.01Q52.35 58.01 52.23 58.07Q52.05 58.17 51.94 58.39Q51.12 59.74 50.59 59.74Q50.52 59.74 50.47 59.72Q50.13 59.62 49.98 58.91Q49.81 58.07 49.81 57.06Q49.81 55.66 50.05 54.68Q50.3 53.7 50.3 52.44Q50.3 52.11 50.13 51.63Q50.06 51.44 49.93 51.32Q49.73 51.15 49.39 51.15Q49.15 51.15 48.85 51.29Q48.57 51.43 48.33 51.91Q47.71 53.4 46.81 55.42Q45.94 57.43 44.82 58.97Q43.33 61.09 42.37 61.09Q42.24 61.09 42.13 61.04Q41.61 60.8 41.61 59.45Q41.61 58.55 41.87 57.13Q42.14 55.71 42.55 54.25Q42.96 52.78 43.44 51.73Q44.01 50.33 44.94 49.25Q45.86 48.2 46.8 48.18Q46.82 48.18 46.84 48.18Q46.89 48.18 46.94 48.18Q47.47 48.22 47.97 48.66Q48.53 49.14 49.01 50.24Q49.13 50.5 49.3 50.53Q49.32 50.53 49.33 50.53Q49.35 50.53 49.38 50.53Q49.6 50.5 49.77 50.12Q49.97 49.71 49.97 49.09Q49.97 48.65 49.85 48.25Q49.68 47.69 49.26 47.19Q48.8 46.63 48.22 46.44Q47.93 46.35 47.61 46.35Q46.56 46.35 45.44 47.33Q44.34 48.32 43.36 49.87Q42.37 51.43 41.6 53.29Q40.84 55.14 40.38 56.87Q39.94 58.59 39.94 59.88Q39.94 60.89 40.31 61.64Q40.49 61.98 40.77 62.17Q41.1 62.38 41.56 62.38Q42.43 62.38 43.44 61.48Q44.45 60.56 45.35 59.24Q46.26 57.91 46.93 56.7Q47.61 55.46 47.85 54.89Q47.9 55.37 47.9 56.65Q47.9 57.91 48.71 59.5Q48.92 59.92 49.27 60.16Q49.7 60.46 50.34 60.46Q51.21 60.46 52.08 59.77Q52.19 59.67 52.29 59.58Q52.06 60.74 51.76 62.05Q51.31 64.07 50.71 65.91Q50.11 67.76 49.43 68.77Q49.3 68.97 49.34 69.15Q49.37 69.3 49.51 69.43Q49.6 69.51 49.69 69.57ZM128.7 69.57Q128.96 69.73 129.31 69.73Q129.53 69.73 129.73 69.66Q130.05 69.56 130.31 69.29Q131.23 68.19 131.99 65.29Q132.76 62.38 133.29 58.73Q134 60.18 134.9 61.48Q135.79 62.77 136.84 63.57Q137.82 64.33 138.83 64.39Q138.91 64.39 139 64.39Q139.87 64.39 140.78 63.77Q141.69 63.15 142.61 61.8Q142.84 61.46 143.3 60.63Q143.75 59.79 144.24 58.83Q144.25 58.79 144.27 58.76Q144.59 60.34 145.22 61.35Q146.27 63.03 147.63 63.32Q147.92 63.39 148.22 63.39Q149.89 63.39 151.68 61.71Q153.46 60.04 154.7 56.95Q154.89 56.58 154.89 56.24Q154.89 55.99 154.77 55.9Q154.7 55.85 154.61 55.85Q154.58 55.85 154.55 55.85Q154.15 55.9 153.83 56.62Q152.44 59.55 151 60.93Q149.57 62.29 148.41 62.29Q148.05 62.29 147.72 62.17Q146.85 61.88 146.25 60.77Q145.43 59.26 145.43 56.58Q145.43 55.9 145.5 55.21Q145.58 54.5 145.68 53.74Q146.06 51 146.89 49.87Q147.74 48.75 148.47 48.75Q148.56 48.75 148.65 48.77Q148.91 48.84 149.12 49.11Q149.41 49.46 149.41 50.1Q149.41 51.15 148.55 52.52Q147.69 53.88 146.73 54.56Q145.97 55.04 145.97 55.42Q145.97 55.48 146 55.51Q146.04 55.57 146.16 55.57Q146.44 55.57 146.64 55.46Q147.55 55.14 148.48 54.11Q148.56 54.02 148.64 53.93Q149.47 52.97 150.08 51.81Q150.76 50.53 150.76 49.37Q150.76 48.34 150.26 47.72Q150.18 47.62 150.08 47.53Q149.76 47.22 149.38 47.05Q148.96 46.87 148.47 46.87Q147.5 46.87 146.44 47.7Q145.38 48.5 144.66 50.26Q143.94 52.01 143.94 54.89Q143.94 56.13 144.04 57.19Q143.92 57.35 143.8 57.59Q143.42 58.21 142.84 59.46Q142.27 60.7 141.45 61.71Q140.25 63.11 139.1 63.11Q139 63.11 138.91 63.1Q137.9 63.02 136.96 62.1Q135.93 61.09 135.11 59.55Q134.3 58.01 133.68 56.43L134.64 55.42L136.46 53.4Q136.75 53.12 137.69 52.34Q138.62 51.54 139.75 50.58Q140.87 49.62 141.68 48.75Q142.5 47.88 142.5 47.45Q142.5 47.34 142.45 47.26Q142.33 47.07 141.93 47.07Q141.21 47.03 140.35 47.77Q139.48 48.5 138.68 49.39Q137.9 50.29 137.42 50.77Q136.94 51.25 136.94 51.59Q136.94 51.77 137 51.87Q137.07 51.94 137.09 52.03Q137.09 52.05 137.09 52.07L137.09 52.11Q136.41 52.92 135.49 53.67Q134.59 54.41 133.72 55.18Q133.96 53.03 134.05 50.85Q134.16 48.66 134.16 46.69Q134.16 43.8 133.89 41.55Q133.63 39.29 133.1 38.24Q132.95 37.89 132.71 37.82Q132.64 37.8 132.58 37.8Q132.51 37.8 132.45 37.83Q132.28 37.93 132.28 38.33Q132.28 38.72 132.58 39.43Q132.86 40.16 133 41.37Q133.15 42.56 133.15 44.1Q133.15 45.96 132.95 48.2Q132.76 50.43 132.47 52.69Q132.47 52.68 132.47 52.67Q132.46 52.59 132.31 52.52Q132.14 52.44 132.05 52.44Q131.85 52.39 131.49 52.92Q131.13 53.45 131.13 54.22Q131.13 54.47 131.19 54.71Q131.35 55.43 131.99 56.05Q131.87 56.64 131.6 58.01Q131.56 58.01 131.52 58.01Q131.36 58.01 131.24 58.07Q131.06 58.17 130.94 58.39Q130.12 59.74 129.6 59.74Q129.53 59.74 129.47 59.72Q129.14 59.62 128.99 58.91Q128.82 58.07 128.82 57.06Q128.82 55.66 129.06 54.68Q129.3 53.7 129.3 52.44Q129.3 52.11 129.14 51.63Q129.07 51.44 128.94 51.32Q128.74 51.15 128.4 51.15Q128.16 51.15 127.86 51.29Q127.58 51.43 127.33 51.91Q126.71 53.4 125.82 55.42Q124.94 57.43 123.83 58.97Q122.34 61.09 121.38 61.09Q121.25 61.09 121.14 61.04Q120.62 60.8 120.62 59.45Q120.62 58.55 120.88 57.13Q121.15 55.71 121.56 54.25Q121.97 52.78 122.45 51.73Q123.02 50.33 123.95 49.25Q124.87 48.2 125.81 48.18Q125.83 48.18 125.85 48.18Q125.9 48.18 125.95 48.18Q126.48 48.22 126.98 48.66Q127.53 49.14 128.01 50.24Q128.14 50.5 128.31 50.53Q128.32 50.53 128.34 50.53Q128.36 50.53 128.38 50.53Q128.6 50.5 128.78 50.12Q128.98 49.71 128.98 49.09Q128.98 48.65 128.86 48.25Q128.69 47.69 128.27 47.19Q127.81 46.63 127.23 46.44Q126.94 46.35 126.62 46.35Q125.57 46.35 124.45 47.33Q123.35 48.32 122.37 49.87Q121.38 51.43 120.61 53.29Q119.85 55.14 119.39 56.87Q118.94 58.59 118.94 59.88Q118.94 60.89 119.32 61.64Q119.5 61.98 119.78 62.17Q120.11 62.38 120.57 62.38Q121.44 62.38 122.45 61.48Q123.46 60.56 124.36 59.24Q125.27 57.91 125.94 56.7Q126.62 55.46 126.85 54.89Q126.91 55.37 126.91 56.65Q126.91 57.91 127.72 59.5Q127.93 59.92 128.27 60.16Q128.71 60.46 129.35 60.46Q130.22 60.46 131.08 59.77Q131.2 59.67 131.3 59.58Q131.07 60.74 130.77 62.05Q130.31 64.07 129.72 65.91Q129.12 67.76 128.44 68.77Q128.31 68.97 128.35 69.15Q128.38 69.3 128.52 69.43Q128.61 69.51 128.7 69.57ZM89.89 64.76Q89.27 64.83 88.75 64.83Q86.98 64.83 86.11 64.23Q85.54 63.84 85.34 63.3Q85.24 63.03 85.24 62.72Q85.24 61.23 87.01 59.29Q88.79 57.34 91.86 55.76Q91.49 58.16 91.34 60.37Q91.19 62.58 91.24 64.59Q90.53 64.69 89.89 64.76Z" fill="#1F1711" fill-opacity="1.000000" fill-rule="evenodd"/>
</svg>
