<svg width="154.598633" height="89.050781" viewBox="0 0 154.599 89.0508" fill="none" xmlns="http://www.w3.org/2000/svg" xmlns:xlink="http://www.w3.org/1999/xlink">
	<desc>
			Created with Pixso.
	</desc>
	<defs/>
	<path id="&amp;" d="M71.44 89.05C70.04 89.05 68.68 88.7 67.35 88C66.01 87.3 65.06 86.16 64.48 84.58C64.42 84.39 64.48 84.25 64.67 84.14C64.86 84.05 65.01 84.16 65.14 84.49C65.77 85.7 66.58 86.58 67.55 87.14C68.55 87.71 69.59 88 70.67 88C70.92 88 71.18 87.98 71.46 87.95C71.76 87.92 72.04 87.88 72.3 87.81C74.45 87.3 76.15 86.03 77.39 84C78.63 81.97 79.52 79.59 80.04 76.86C80.59 74.13 80.92 71.39 81.04 68.63C81.18 65.87 81.21 63.5 81.14 61.53C79.37 62.54 77.55 63.43 75.67 64.21C73.8 64.97 71.84 65.6 69.81 66.09C68.86 66.36 67.77 66.56 66.53 66.72C65.29 66.87 63.97 66.95 62.58 66.95C60.1 66.95 57.66 66.5 55.27 65.58C52.9 64.65 51.27 62.88 50.37 60.28C50.12 59.66 49.96 59.01 49.9 58.35C49.84 57.66 49.81 57.01 49.81 56.39C49.81 54.55 50.08 52.75 50.62 51C51.17 49.25 51.75 47.67 52.37 46.28C50.91 45.39 49.62 44.32 48.51 43.04C47.41 41.77 46.57 40.32 46 38.67C45.75 37.91 45.55 37.15 45.41 36.39C45.29 35.62 45.23 34.88 45.23 34.18C45.23 31.33 46.02 28.72 47.6 26.35C49.2 23.96 51.17 21.94 53.51 20.3C55.86 18.64 58.19 17.55 60.48 17.04C60.73 16.98 61.31 16.89 62.23 16.76C63.16 16.62 64.03 16.55 64.86 16.55C65.88 16.55 66.42 16.69 66.48 16.95C66.61 17.2 66.51 17.32 66.18 17.32C65.3 17.32 64.45 17.32 63.62 17.32C62.8 17.32 61.94 17.41 61.04 17.6C58.89 18.11 56.78 19.12 54.72 20.62C52.65 22.11 50.94 23.93 49.58 26.09C48.21 28.24 47.53 30.62 47.53 33.23C47.53 33.93 47.59 34.64 47.72 35.37C47.84 36.1 48.03 36.85 48.27 37.62C49.24 40.29 50.96 42.48 53.44 44.18C55.53 40.18 57.84 36.68 60.37 33.67C62.91 30.65 65.58 27.76 68.37 25C71.17 22.24 74 19.3 76.86 16.18C76.86 15.61 76.84 15 76.81 14.37C76.78 13.73 76.76 13.1 76.76 12.46C76.76 10.94 76.84 9.41 77 7.86C77.17 6.29 77.5 4.94 78 3.81C78.38 2.97 78.88 2.13 79.49 1.27C80.09 0.42 80.87 0 81.81 0C82.45 0 82.98 0.2 83.42 0.62C83.87 1.03 84.22 1.55 84.49 2.18C84.73 2.75 84.86 3.45 84.86 4.27C84.86 5.67 84.49 7.07 83.76 8.46C83.04 9.86 82.19 11.14 81.23 12.32C80.28 13.5 79.43 14.53 78.67 15.41C78.67 18.02 78.87 20.67 79.28 23.37C79.69 26.07 80.1 28.72 80.49 31.32C81.94 29.49 83.67 27.77 85.67 26.16C87.67 24.53 89.85 23.43 92.21 22.86C92.97 22.66 93.79 22.55 94.67 22.55C95.94 22.55 97.17 22.86 98.35 23.46C99.53 24.07 100.39 25.2 100.95 26.86C101.34 28 101.53 29.28 101.53 30.67C101.53 32.31 101.31 34.01 100.86 35.76C100.42 37.5 99.98 39 99.53 40.28C98.08 44.21 96.08 47.76 93.53 50.9C90.99 54.05 88.04 56.73 84.67 58.95C84.73 59.97 84.8 61.03 84.86 62.11C84.92 63.18 84.95 64.26 84.95 65.35C84.95 68.65 84.65 71.97 84.04 75.3C83.44 78.63 82.35 81.52 80.76 83.95C79.18 86.4 76.83 88.01 73.72 88.77C73.08 88.95 72.32 89.05 71.44 89.05ZM78.67 14.09C79.12 13.58 79.71 12.7 80.44 11.46C81.17 10.22 81.82 8.9 82.39 7.51C82.97 6.11 83.25 4.97 83.25 4.09C83.25 3.7 83.21 3.45 83.14 3.32C83.07 3.13 82.98 2.95 82.86 2.76C82.73 2.56 82.55 2.46 82.3 2.46C81.91 2.46 81.51 2.73 81.09 3.27C80.69 3.82 80.42 4.27 80.3 4.65C79.73 5.86 79.32 7.4 79.09 9.27C78.87 11.15 78.73 12.76 78.67 14.09ZM59.9 46.28C62 46.28 64.01 45.79 65.95 44.81C67.89 43.82 69.68 42.59 71.32 41.14C72.98 39.68 74.43 38.27 75.67 36.9C76.91 35.54 77.85 34.48 78.49 33.72C78.16 30.99 77.85 28.28 77.56 25.58C77.28 22.86 77.04 20.14 76.86 17.41C75.34 19.07 73.78 20.7 72.18 22.3C70.6 23.88 69.08 25.52 67.62 27.23C65.97 29.14 64.42 31.15 63 33.28C61.57 35.4 60.25 37.61 59.04 39.9C58.53 40.79 58.05 41.71 57.6 42.67C57.17 43.62 56.72 44.6 56.27 45.62C57.42 46.06 58.63 46.28 59.9 46.28ZM84.39 57.53C87.37 55.63 89.98 53.39 92.23 50.81C94.49 48.24 96.26 45.21 97.53 41.72C98.11 40.12 98.52 38.67 98.77 37.37C99.03 36.07 99.16 34.88 99.16 33.81C99.16 31.27 98.56 29.36 97.35 28.09C96.14 26.82 94.58 26.18 92.67 26.18C90.95 26.18 89.04 26.71 86.95 27.76C84.86 28.8 82.76 30.37 80.67 32.46C81.31 36.66 82.02 40.86 82.81 45.04C83.6 49.23 84.13 53.39 84.39 57.53ZM66.09 64.18C67.17 64.18 68.24 64.11 69.28 63.95C70.33 63.8 71.27 63.63 72.09 63.44C75.27 62.66 78.22 61.52 80.95 60C80.89 55.81 80.62 51.61 80.14 47.39C79.67 43.16 79.18 38.92 78.67 34.67C77.97 35.87 76.99 37.25 75.72 38.81C74.45 40.36 72.95 41.85 71.23 43.28C69.52 44.7 67.67 45.9 65.67 46.86C63.67 47.8 61.59 48.28 59.44 48.28C58.17 48.28 56.9 48.09 55.62 47.72C55.36 48.6 55.12 49.59 54.9 50.67C54.69 51.74 54.58 52.82 54.58 53.91C54.58 55.24 54.76 56.57 55.14 57.91C56.03 60.32 57.55 61.97 59.67 62.86C61.79 63.74 63.93 64.18 66.09 64.18Z" fill="#D0D0D0" fill-opacity="1.000000" fill-rule="nonzero"/>
	<path id="Wake Bake" d="M6.8 72.06Q6.56 72.06 6.34 72.01Q5.39 71.79 4.65 70.64Q3.73 69.22 3.35 66.06Q3.3 65.81 3.3 65.46L3.3 64.71Q3.3 63.13 3.49 60.7Q3.69 58.28 3.97 55.36Q4.26 52.43 4.52 49.34Q4.79 46.23 4.98 43.25Q5.17 40.28 5.17 37.84Q5.17 34.8 4.79 32.94Q4.46 31.37 3.7 31.11Q3.56 31.07 3.39 31.07Q3.38 31.07 3.36 31.07L3.36 31.07Q2.75 31.09 2.17 31.77Q1.58 32.46 1.12 33.3Q0.66 34.14 0.39 34.64Q0.23 34.96 0.15 34.94Q0.11 34.93 0.09 34.8Q0.04 34.62 0.02 34.45Q0 34.28 0 34.09Q0 33.18 0.42 32.17Q0.79 31.31 1.39 30.68L1.39 30.68Q1.5 30.57 1.61 30.47Q2.12 30 2.71 29.85L2.71 29.85Q3.02 29.77 3.35 29.77Q3.55 29.77 3.69 29.79Q3.83 29.81 3.98 29.87Q4.36 29.97 4.7 30.16L4.7 30.16Q5.98 30.89 6.51 32.94Q7.19 35.53 7.19 39.22Q7.19 42.01 6.92 45.13Q6.66 48.25 6.35 51.4Q6.04 54.54 5.77 57.37Q5.51 60.2 5.51 62.37Q5.51 62.99 5.54 63.54Q5.56 64.09 5.61 64.57Q6 67.59 6.66 68.81Q7.26 69.91 8.01 70.03Q8.1 70.04 8.2 70.04Q9.16 70.04 10.19 68.99Q11.22 67.93 12.23 66.35Q13.24 64.76 14.06 63.18Q15.16 61.11 16.07 58.34Q16.99 55.55 17.73 52.66Q18.48 49.78 18.9 47.39Q18.42 46.57 18.32 45.71Q18.23 44.85 18.23 43.5Q18.23 42.06 18.76 41.25Q19.26 40.46 19.81 40.43L19.81 40.43Q19.84 40.43 19.86 40.43Q20.04 40.43 20.19 40.49Q20.79 40.73 21.02 41.87Q21.55 44.26 22.07 46.93Q22.6 49.59 23.25 52.14Q23.89 54.68 24.76 56.85Q26.54 61.11 28.03 62.96Q29.51 64.8 30.76 64.8Q30.95 64.8 31.13 64.77Q32.2 64.56 33.04 63.15Q34.03 61.5 34.69 58.79Q35.36 56.07 35.7 52.89Q36.04 49.69 36.04 46.62Q36.04 44.07 35.82 41.87Q35.61 39.66 35.08 38.26Q34.88 37.69 34.79 37.07Q34.69 36.45 34.69 35.92Q34.69 35.24 34.86 34.76Q35 34.37 35.24 34.3Q35.3 34.28 35.36 34.28Q35.75 34.28 36.14 34.86Q36.66 35.53 37.12 36.71Q37.58 37.89 37.91 38.74Q38.29 39.7 38.91 41.07Q39.55 42.45 40.24 43.57Q40.93 44.7 41.61 44.94Q41.63 44.95 41.65 44.97Q41.7 45.02 41.7 45.13Q41.7 45.17 41.69 45.22Q41.63 45.45 41.27 45.61Q40.84 45.8 40.65 45.75Q39.55 45.22 38.8 44.62Q38.06 44.03 37.1 42.4Q37.14 43.25 37.14 44.14L37.14 45.9Q37.14 48.4 36.97 50.89Q36.8 53.39 36.32 55.93Q35.27 61.45 33.66 63.81Q32.15 66.02 30.48 66.14L30.48 66.14Q30.38 66.15 30.28 66.15Q30.25 66.15 30.22 66.15Q28.81 66.13 27.42 64.89Q26.01 63.61 24.8 61.5Q23.61 59.39 22.74 56.79Q21.98 54.29 21.44 52.21Q20.91 50.12 20.63 48.54Q19.86 52 18.63 55.41Q17.41 58.8 15.92 61.8Q14.43 64.8 12.83 67.11Q11.22 69.42 9.66 70.73Q8.1 72.06 6.8 72.06ZM100.27 84.59Q100.01 84.59 99.76 84.56Q97.82 84.37 96.01 82.76Q93.97 80.94 92.6 77.48Q91.24 74.03 91 69.13Q89.51 69.27 88.27 69.27Q85.48 69.27 84.2 68.54Q83.29 68.03 83.03 67.29Q82.93 67 82.93 66.68Q82.93 65.53 84.03 64.14Q85.14 62.74 87.11 61.34Q89.07 59.92 91.72 58.76Q92.62 53.87 94.66 48.19Q96.71 42.49 100.17 36.11Q100.35 35.78 100.62 35.62Q100.86 35.48 101.18 35.48Q101.34 35.48 101.48 35.53L101.48 35.53Q101.73 35.59 101.94 35.78Q102.07 35.88 102.15 36.02Q102.28 36.24 102.28 36.54Q102.28 36.77 102.13 37.16Q99.06 43.36 97.02 48.52Q94.98 53.67 93.83 57.95Q95.99 57.13 98.44 56.6Q100.89 56.07 103.43 55.98Q104.05 55.98 104.09 56.14Q104.1 56.15 104.1 56.17Q104.1 56.17 104.1 56.18Q104.08 56.37 103.64 56.53Q103.2 56.7 102.13 56.74Q99.78 56.89 97.64 57.4Q95.51 57.9 93.63 58.62Q92.92 61.41 92.53 63.79Q92.16 66.15 92.05 68.17Q97 67.11 101.05 65.07Q105.11 63.04 108.22 60.35Q111.35 57.66 113.46 54.77Q114.81 52.96 115.41 51.54Q116 50.12 116 49.07Q116 47.93 115.48 47.15Q115.29 46.87 115.04 46.64Q114.08 45.75 112.5 45.35Q110.92 44.94 109.04 44.94Q107.07 44.94 105.06 45.3Q103.04 45.66 101.41 46.28Q101.03 46.38 100.89 46.38Q100.47 46.38 100.33 46.19Q100.27 46.09 100.27 45.95Q100.27 45.84 100.3 45.74Q100.4 45.45 100.79 45.27Q106.7 41.92 109.2 39.19Q111.69 36.45 111.69 34.57Q111.69 33.88 111.42 33.32Q111.05 32.56 110.18 32.05Q108.67 31.16 106.22 31.16Q104.3 31.16 101.89 31.79Q99.49 32.41 96.95 33.8Q94.84 34.96 93.13 36.52Q91.43 38.07 90.25 39.74Q89.07 41.39 88.5 42.86Q88.04 44.02 88.04 44.9Q88.04 45.12 88.07 45.32Q88.07 45.42 88.09 45.54Q88.11 45.66 88.11 45.75Q88.11 46.64 87.72 46.88Q87.58 46.96 87.4 46.96Q87.06 46.96 86.7 46.48Q86.34 46 86.34 45.04Q86.34 43.59 87.22 41.96Q88.11 40.32 89.62 38.67Q91.14 37.02 93.01 35.55Q94.89 34.09 96.9 33.04Q99.49 31.64 102.01 30.97Q104.53 30.29 106.65 30.29Q109.57 30.29 111.4 31.45Q112.4 32.08 112.85 32.99Q113.23 33.73 113.23 34.66Q113.23 36.59 111.35 39.13Q109.48 41.67 105.06 44.74Q106.55 44.51 107.84 44.39Q109.14 44.26 110.25 44.26Q114.38 44.26 116.21 45.63Q117.29 46.43 117.74 47.49Q118.07 48.26 118.07 49.16Q118.07 50.74 117.18 52.59Q116.3 54.45 114.71 56.41Q112.41 59.24 108.93 61.89Q105.45 64.52 101.14 66.45Q96.86 68.37 92 69.04Q91.99 69.44 91.99 69.83Q91.99 73.57 92.8 76.09Q93.69 78.88 95.07 80.44Q96.47 82 97.86 82.64Q99.26 83.29 100.17 83.29Q100.84 83.29 101.07 83.05Q101.12 82.99 101.18 82.95Q101.37 82.8 101.66 82.8Q101.72 82.8 101.77 82.81Q102.09 82.85 102.38 83.1Q102.68 83.36 102.71 83.65L102.71 83.66Q102.71 83.69 102.71 83.72Q102.71 83.81 102.68 83.89Q102.61 84.06 102.38 84.15Q101.32 84.59 100.27 84.59ZM50.01 73.55Q49.66 73.55 49.4 73.39L49.4 73.39Q49.3 73.33 49.22 73.25Q49.07 73.12 49.05 72.97L49.05 72.97Q49.04 72.94 49.04 72.9Q49.04 72.75 49.14 72.59Q49.82 71.58 50.42 69.73Q51.01 67.89 51.47 65.87Q51.77 64.56 52 63.4Q51.9 63.49 51.78 63.59Q50.92 64.28 50.05 64.28Q49.41 64.28 48.97 63.98Q48.63 63.74 48.42 63.32Q47.61 61.73 47.61 60.47Q47.61 59.19 47.55 58.71Q47.32 59.29 46.64 60.52Q45.97 61.73 45.06 63.06Q44.15 64.38 43.15 65.3Q42.14 66.2 41.27 66.2Q40.81 66.2 40.48 65.99Q40.2 65.8 40.02 65.46Q39.64 64.71 39.64 63.7Q39.64 62.41 40.09 60.69Q40.55 58.96 41.31 57.11Q42.08 55.25 43.06 53.7Q44.05 52.14 45.15 51.15Q46.26 50.17 47.32 50.17Q47.64 50.17 47.92 50.26Q48.51 50.45 48.97 51.01Q49.38 51.51 49.55 52.08Q49.67 52.47 49.67 52.91Q49.67 53.53 49.48 53.94Q49.3 54.32 49.08 54.35L49.08 54.35Q49.06 54.35 49.04 54.35Q49.02 54.35 49 54.35Q48.84 54.32 48.71 54.06Q48.23 52.96 47.68 52.48Q47.18 52.04 46.65 52L46.65 52Q46.6 52 46.55 52Q46.53 52 46.51 52Q45.57 52.02 44.65 53.07Q43.72 54.15 43.15 55.55Q42.67 56.6 42.26 58.07Q41.85 59.53 41.58 60.95Q41.32 62.37 41.32 63.27Q41.32 64.62 41.83 64.86Q41.95 64.91 42.08 64.91Q43.04 64.91 44.53 62.79Q45.64 61.25 46.52 59.24Q47.41 57.22 48.03 55.73Q48.28 55.25 48.56 55.11Q48.85 54.97 49.1 54.97Q49.44 54.97 49.63 55.14Q49.77 55.26 49.84 55.45Q50 55.93 50 56.26Q50 57.52 49.76 58.5Q49.52 59.48 49.52 60.88Q49.52 61.89 49.69 62.73Q49.84 63.44 50.17 63.54Q50.23 63.56 50.3 63.56Q50.82 63.56 51.64 62.21Q51.75 61.99 51.94 61.89Q52.06 61.83 52.22 61.83Q52.26 61.83 52.3 61.83Q52.56 60.46 52.69 59.87Q52.04 59.25 51.89 58.53Q51.83 58.29 51.83 58.04Q51.83 57.27 52.18 56.74Q52.55 56.21 52.75 56.26Q52.84 56.26 53.01 56.34Q53.16 56.41 53.17 56.49L53.17 56.49Q53.17 56.5 53.17 56.51Q53.46 54.25 53.65 52.02Q53.85 49.78 53.85 47.92Q53.85 46.38 53.7 45.19Q53.56 43.98 53.27 43.25Q52.98 42.54 52.98 42.15Q52.98 41.75 53.15 41.65Q53.21 41.62 53.27 41.62Q53.34 41.62 53.4 41.64L53.4 41.64Q53.64 41.71 53.8 42.06Q54.33 43.11 54.59 45.37Q54.86 47.62 54.86 50.51Q54.86 52.48 54.75 54.67Q54.66 56.85 54.42 59Q55.29 58.23 56.19 57.49Q57.11 56.74 57.79 55.93L57.79 55.89Q57.79 55.87 57.78 55.85Q57.77 55.76 57.7 55.69Q57.63 55.59 57.63 55.41Q57.63 55.07 58.11 54.59Q58.6 54.11 59.38 53.21Q60.18 52.32 61.04 51.59Q61.91 50.85 62.63 50.89Q63.03 50.89 63.15 51.08Q63.2 51.16 63.2 51.27Q63.2 51.7 62.38 52.57Q61.57 53.44 60.45 54.4Q59.32 55.36 58.38 56.16Q57.45 56.94 57.15 57.22L55.34 59.24L54.38 60.25Q55 61.83 55.81 63.37Q56.63 64.91 57.66 65.92Q58.6 66.84 59.6 66.92Q59.7 66.93 59.8 66.93Q60.95 66.93 62.15 65.53Q62.97 64.52 63.54 63.28Q64.11 62.03 64.5 61.41Q64.62 61.17 64.74 61.01Q64.64 59.95 64.64 58.71Q64.64 55.83 65.36 54.08Q66.08 52.32 67.14 51.52Q68.2 50.7 69.16 50.7Q69.66 50.7 70.08 50.87L70.08 50.87Q70.46 51.04 70.78 51.35Q70.88 51.44 70.96 51.54Q71.46 52.16 71.46 53.19Q71.46 54.35 70.78 55.63Q70.17 56.79 69.33 57.75Q69.26 57.84 69.18 57.93Q68.25 58.96 67.34 59.29Q67.14 59.39 66.86 59.39Q66.74 59.39 66.7 59.33Q66.67 59.3 66.67 59.24Q66.67 58.86 67.43 58.38Q68.39 57.7 69.25 56.34Q70.11 54.97 70.11 53.92Q70.11 53.29 69.82 52.93Q69.61 52.66 69.35 52.59Q69.26 52.57 69.16 52.57Q68.44 52.57 67.59 53.7Q66.76 54.82 66.37 57.56Q66.28 58.32 66.2 59.03Q66.13 59.72 66.13 60.4Q66.13 63.08 66.95 64.59Q67.55 65.7 68.42 66Q68.74 66.11 69.11 66.11Q70.27 66.11 71.7 64.75Q73.14 63.37 74.53 60.45Q74.85 59.72 75.25 59.68L75.25 59.68Q75.28 59.67 75.3 59.67Q75.4 59.67 75.47 59.72Q75.59 59.81 75.59 60.06Q75.59 60.4 75.4 60.77Q74.16 63.86 72.37 65.53Q70.59 67.21 68.92 67.21Q68.61 67.21 68.32 67.14Q66.97 66.85 65.92 65.17Q65.29 64.16 64.97 62.58Q64.95 62.61 64.93 62.65Q64.45 63.61 64 64.45Q63.54 65.29 63.31 65.62Q62.39 66.97 61.48 67.59Q60.56 68.21 59.7 68.21Q59.61 68.21 59.53 68.21L59.53 68.21Q58.51 68.15 57.54 67.39Q56.49 66.59 55.6 65.3Q54.7 64 53.99 62.55Q53.46 66.2 52.69 69.11Q51.93 72.01 51.01 73.11Q50.75 73.38 50.43 73.48Q50.23 73.55 50.01 73.55ZM129.01 73.55Q128.67 73.55 128.41 73.39Q128.31 73.33 128.23 73.25Q128.08 73.12 128.05 72.97Q128.05 72.94 128.05 72.9Q128.05 72.75 128.15 72.59Q128.83 71.58 129.42 69.73Q130.02 67.89 130.48 65.87Q130.78 64.56 131.01 63.4Q130.91 63.49 130.79 63.59Q129.92 64.28 129.06 64.28Q128.41 64.28 127.98 63.98Q127.64 63.74 127.43 63.32Q126.62 61.73 126.62 60.47Q126.62 59.19 126.56 58.71Q126.33 59.29 125.65 60.52Q124.98 61.73 124.07 63.06Q123.16 64.38 122.16 65.3Q121.15 66.2 120.28 66.2Q119.81 66.2 119.49 65.99Q119.21 65.8 119.03 65.46Q118.65 64.71 118.65 63.7Q118.65 62.41 119.1 60.69Q119.55 58.96 120.32 57.11Q121.09 55.25 122.07 53.7Q123.06 52.14 124.16 51.15Q125.27 50.17 126.33 50.17Q126.64 50.17 126.93 50.26Q127.52 50.45 127.98 51.01Q128.39 51.51 128.56 52.08Q128.68 52.47 128.68 52.91Q128.68 53.53 128.48 53.94Q128.31 54.32 128.09 54.35Q128.07 54.35 128.05 54.35Q128.03 54.35 128.01 54.35Q127.85 54.32 127.72 54.06Q127.24 52.96 126.69 52.48Q126.19 52.04 125.66 52Q125.61 52 125.55 52Q125.54 52 125.52 52L125.52 52Q124.57 52.02 123.66 53.07Q122.73 54.15 122.16 55.55Q121.67 56.6 121.26 58.07Q120.85 59.53 120.58 60.95Q120.33 62.37 120.33 63.27Q120.33 64.62 120.84 64.86Q120.95 64.91 121.09 64.91Q122.05 64.91 123.54 62.79Q124.65 61.25 125.53 59.24Q126.42 57.22 127.04 55.73Q127.29 55.25 127.57 55.11Q127.86 54.97 128.11 54.97Q128.45 54.97 128.64 55.14Q128.78 55.26 128.85 55.45Q129.01 55.93 129.01 56.26Q129.01 57.52 128.76 58.5Q128.53 59.48 128.53 60.88Q128.53 61.89 128.69 62.73Q128.84 63.44 129.18 63.54Q129.24 63.56 129.3 63.56Q129.83 63.56 130.65 62.21Q130.76 61.99 130.94 61.89Q131.07 61.83 131.23 61.83Q131.27 61.83 131.31 61.83Q131.57 60.46 131.7 59.87Q131.05 59.25 130.89 58.53Q130.84 58.29 130.84 58.04Q130.84 57.27 131.19 56.74Q131.56 56.21 131.75 56.26Q131.85 56.26 132.01 56.34Q132.16 56.41 132.18 56.49Q132.18 56.5 132.18 56.51Q132.47 54.25 132.66 52.02Q132.86 49.78 132.86 47.92Q132.86 46.38 132.71 45.19Q132.56 43.98 132.28 43.25Q131.99 42.54 131.99 42.15Q131.99 41.75 132.16 41.65Q132.21 41.62 132.28 41.62Q132.35 41.62 132.41 41.64Q132.65 41.71 132.81 42.06Q133.34 43.11 133.6 45.37Q133.87 47.62 133.87 50.51Q133.87 52.48 133.76 54.67Q133.67 56.85 133.43 59Q134.3 58.23 135.2 57.49Q136.12 56.74 136.79 55.93L136.79 55.89Q136.79 55.87 136.79 55.85Q136.78 55.76 136.71 55.69Q136.64 55.59 136.64 55.41Q136.64 55.07 137.12 54.59Q137.6 54.11 138.39 53.21Q139.19 52.32 140.05 51.59Q140.92 50.85 141.63 50.89Q142.04 50.89 142.16 51.08Q142.21 51.16 142.21 51.27Q142.21 51.7 141.39 52.57Q140.58 53.44 139.46 54.4Q138.33 55.36 137.39 56.16Q136.46 56.94 136.16 57.22L134.35 59.24L133.38 60.25Q134 61.83 134.81 63.37Q135.63 64.91 136.67 65.92Q137.61 66.84 138.61 66.92Q138.71 66.93 138.81 66.93Q139.96 66.93 141.15 65.53Q141.97 64.52 142.55 63.28Q143.12 62.03 143.51 61.41Q143.63 61.17 143.75 61.01Q143.65 59.95 143.65 58.71Q143.65 55.83 144.36 54.08Q145.09 52.32 146.14 51.52Q147.21 50.7 148.17 50.7Q148.67 50.7 149.09 50.87Q149.47 51.04 149.79 51.35Q149.88 51.44 149.97 51.54L149.97 51.54Q150.47 52.16 150.47 53.19Q150.47 54.35 149.79 55.63Q149.18 56.79 148.34 57.75L148.34 57.75Q148.26 57.84 148.18 57.93Q147.26 58.96 146.34 59.29Q146.14 59.39 145.86 59.39Q145.75 59.39 145.71 59.33Q145.68 59.3 145.68 59.24Q145.68 58.86 146.44 58.38Q147.4 57.7 148.25 56.34Q149.12 54.97 149.12 53.92Q149.12 53.29 148.83 52.93Q148.62 52.66 148.35 52.59Q148.27 52.57 148.17 52.57Q147.45 52.57 146.6 53.7Q145.77 54.82 145.38 57.56Q145.29 58.32 145.21 59.03Q145.14 59.72 145.14 60.4Q145.14 63.08 145.96 64.59Q146.56 65.7 147.43 66Q147.75 66.11 148.11 66.11Q149.27 66.11 150.7 64.75Q152.14 63.37 153.54 60.45Q153.86 59.72 154.25 59.68Q154.28 59.67 154.31 59.67Q154.41 59.67 154.47 59.72Q154.59 59.81 154.59 60.06Q154.59 60.4 154.41 60.77Q153.16 63.86 151.38 65.53Q149.6 67.21 147.93 67.21Q147.62 67.21 147.33 67.14L147.33 67.14Q145.98 66.85 144.93 65.17Q144.3 64.16 143.98 62.58Q143.96 62.62 143.94 62.65Q143.46 63.61 143 64.45Q142.55 65.29 142.31 65.62Q141.4 66.97 140.49 67.59Q139.57 68.21 138.71 68.21Q138.62 68.21 138.54 68.21Q137.52 68.15 136.55 67.39Q135.49 66.59 134.6 65.3Q133.71 64 133 62.55Q132.47 66.2 131.7 69.11Q130.94 72.01 130.02 73.11Q129.76 73.38 129.44 73.48Q129.24 73.55 129.01 73.55ZM88.45 68.65Q88.98 68.65 89.6 68.58Q90.23 68.51 90.95 68.41Q90.94 67.91 90.94 67.39Q90.94 65.85 91.04 64.2Q91.2 61.98 91.57 59.58Q88.5 61.16 86.72 63.11Q84.95 65.05 84.95 66.54Q84.95 66.85 85.05 67.12Q85.24 67.66 85.82 68.05Q86.68 68.65 88.45 68.65Z" fill="#000000" fill-opacity="1.000000" fill-rule="evenodd"/>
</svg>
